<svg xmlns="http://www.w3.org/2000/svg" width="256" height="256" viewBox="0 0 100 100"><rect width="100" height="100" rx="20" fill="#4a4a4a"></rect><path fill="#7481de" d="M23.50 18.01L23.50 81.99L15.06 81.99L15.06 18.01L23.50 18.01ZM62.44 56.94L47.36 56.94L47.36 81.99L38.93 81.99L38.93 18.01L62.52 18.01Q73.03 18.01 78.98 23.37Q84.94 28.73 84.94 37.56L84.94 37.56Q84.94 46.88 79.11 51.91Q73.29 56.94 62.44 56.94L62.44 56.94ZM47.36 24.95L47.36 50.04L62.52 50.04Q69.29 50.04 72.90 46.86Q76.50 43.67 76.50 37.65L76.50 37.65Q76.50 31.94 72.90 28.51Q69.29 25.08 63.01 24.95L63.01 24.95L47.36 24.95Z"></path></svg>